<?xml version="1.0" encoding="UTF-8"?><svg xmlns="http://www.w3.org/2000/svg" xmlns:xlink="http://www.w3.org/1999/xlink" fill-opacity="1" color-rendering="auto" color-interpolation="auto" text-rendering="auto" stroke="black" stroke-linecap="square" width="980" stroke-miterlimit="10" shape-rendering="auto" stroke-opacity="1" fill="black" stroke-dasharray="none" font-weight="normal" stroke-width="1" height="544" font-family="'Dialog'" font-style="normal" stroke-linejoin="miter" font-size="12px" stroke-dashoffset="0" image-rendering="auto">
  <!--Generated by ySVG 2.5-->
  <defs id="genericDefs"/>
  <g>
    <defs id="defs1">
      <clipPath clipPathUnits="userSpaceOnUse" id="clipPath1">
        <path d="M0 0 L980 0 L980 544 L0 544 L0 0 Z"/>
      </clipPath>
      <clipPath clipPathUnits="userSpaceOnUse" id="clipPath2">
        <path d="M267 311 L1247 311 L1247 855 L267 855 L267 311 Z"/>
      </clipPath>
    </defs>
    <g fill="white" text-rendering="geometricPrecision" shape-rendering="geometricPrecision" transform="translate(-267,-311)" stroke="white">
      <rect x="267" width="980" height="544" y="311" clip-path="url(#clipPath2)" stroke="none"/>
    </g>
    <g fill="rgb(255,204,0)" text-rendering="geometricPrecision" shape-rendering="geometricPrecision" transform="matrix(1,0,0,1,-267,-311)" stroke="rgb(255,204,0)">
      <rect x="282" width="325" height="130" y="611" clip-path="url(#clipPath2)" stroke="none"/>
    </g>
    <g text-rendering="geometricPrecision" stroke-miterlimit="1.45" shape-rendering="geometricPrecision" transform="matrix(1,0,0,1,-267,-311)" stroke-linecap="butt">
      <rect fill="none" x="282" width="325" height="130" y="611" clip-path="url(#clipPath2)"/>
      <text x="413.3945" font-size="16px" y="682.0469" clip-path="url(#clipPath2)" font-family="sans-serif" stroke="none" font-weight="bold" xml:space="preserve">Testing</text>
    </g>
    <g fill="rgb(255,204,0)" text-rendering="geometricPrecision" shape-rendering="geometricPrecision" transform="matrix(1,0,0,1,-267,-311)" stroke="rgb(255,204,0)">
      <rect x="649" width="316" height="107" y="733" clip-path="url(#clipPath2)" stroke="none"/>
    </g>
    <g text-rendering="geometricPrecision" stroke-miterlimit="1.45" shape-rendering="geometricPrecision" transform="matrix(1,0,0,1,-267,-311)" stroke-linecap="butt">
      <rect fill="none" x="649" width="316" height="107" y="733" clip-path="url(#clipPath2)"/>
      <text x="718.0938" font-size="16px" y="783.125" clip-path="url(#clipPath2)" font-family="sans-serif" stroke="none" font-weight="bold" xml:space="preserve">Testing in Production</text>
      <text x="675.4883" font-size="16px" y="801.9688" clip-path="url(#clipPath2)" font-family="sans-serif" stroke="none" font-weight="bold" xml:space="preserve">Smoke tests / Acceptance Tests</text>
    </g>
    <g fill="rgb(255,204,0)" text-rendering="geometricPrecision" shape-rendering="geometricPrecision" transform="matrix(1,0,0,1,-267,-311)" stroke="rgb(255,204,0)">
      <rect x="965" width="267" height="96" y="598" clip-path="url(#clipPath2)" stroke="none"/>
    </g>
    <g text-rendering="geometricPrecision" stroke-miterlimit="1.45" shape-rendering="geometricPrecision" transform="matrix(1,0,0,1,-267,-311)" stroke-linecap="butt">
      <rect fill="none" x="965" width="267" height="96" y="598" clip-path="url(#clipPath2)"/>
      <text x="1022.9961" font-size="16px" y="642.625" clip-path="url(#clipPath2)" font-family="sans-serif" stroke="none" font-weight="bold" xml:space="preserve">Monitoring Simple</text>
      <text x="1030.0508" font-size="16px" y="661.4688" clip-path="url(#clipPath2)" font-family="sans-serif" stroke="none" font-weight="bold" xml:space="preserve">(up/down + KPI)</text>
    </g>
    <g fill="rgb(255,204,0)" text-rendering="geometricPrecision" shape-rendering="geometricPrecision" transform="matrix(1,0,0,1,-267,-311)" stroke="rgb(255,204,0)">
      <rect x="649" width="267" height="63" y="326" clip-path="url(#clipPath2)" stroke="none"/>
    </g>
    <g text-rendering="geometricPrecision" stroke-miterlimit="1.45" shape-rendering="geometricPrecision" transform="matrix(1,0,0,1,-267,-311)" stroke-linecap="butt">
      <rect fill="none" x="649" width="267" height="63" y="326" clip-path="url(#clipPath2)"/>
      <text x="737.1523" font-size="16px" y="363.5469" clip-path="url(#clipPath2)" font-family="sans-serif" stroke="none" font-weight="bold" xml:space="preserve">Monitoring</text>
    </g>
    <g fill="rgb(255,204,0)" text-rendering="geometricPrecision" shape-rendering="geometricPrecision" transform="matrix(1,0,0,1,-267,-311)" stroke="rgb(255,204,0)">
      <rect x="330" width="252" height="35" y="443" clip-path="url(#clipPath2)" stroke="none"/>
    </g>
    <g text-rendering="geometricPrecision" stroke-miterlimit="1.45" shape-rendering="geometricPrecision" transform="matrix(1,0,0,1,-267,-311)" stroke-linecap="butt">
      <rect fill="none" x="330" width="252" height="35" y="443" clip-path="url(#clipPath2)"/>
      <text x="375.0273" font-size="16px" y="466.5469" clip-path="url(#clipPath2)" font-family="sans-serif" stroke="none" font-weight="bold" xml:space="preserve">Explorations / Logs</text>
      <path fill="none" d="M519.513 741.0005 L543.8342 754.2586 L572.4453 765.8369 L602.5674 774.2208 L634.2004 779.41 L641.0068 779.8197" clip-path="url(#clipPath2)"/>
      <path d="M648.9923 780.3003 L637.3143 774.5884 L640.0085 779.7596 L636.7136 784.5704 Z" clip-path="url(#clipPath2)" stroke="none"/>
      <path fill="none" d="M965 786.5 L988.2317 775.1556 L1009.5936 762.0347 L1029.0857 747.1371 L1046.7081 730.4629 L1062.4607 712.0121 L1070.271 700.6324" clip-path="url(#clipPath2)"/>
      <path d="M1074.7981 694.0366 L1063.885 701.101 L1069.7051 701.4569 L1072.1299 706.7598 Z" clip-path="url(#clipPath2)" stroke="none"/>
      <path fill="none" d="M1092.6539 597.9818 L1088.9978 577.0803 L1081.0327 546.1409 L1070.9248 517.5483 L1058.6743 491.3028 L1044.281 467.4042 L1027.7451 445.8525 L1009.0664 426.6478 L988.2451 409.79 L965.281 395.2792 L940.1743 383.1153 L923.5115 377.1124" clip-path="url(#clipPath2)"/>
      <path d="M915.985 374.4008 L925.5801 383.1721 L924.4523 377.4513 L928.9694 373.7641 Z" clip-path="url(#clipPath2)" stroke="none"/>
      <path fill="none" d="M648.9648 354.1397 L646.9069 354.4232 L625.8429 358.7757 L605.2174 364.5181 L585.0304 371.6507 L565.2819 380.1732 L545.972 390.0859 L527.1006 401.3886 L508.6676 414.0814 L490.6732 428.1642 L479.8391 437.7128" clip-path="url(#clipPath2)"/>
      <path d="M473.8374 443.0024 L486.146 438.8191 L480.5893 437.0516 L479.534 431.317 Z" clip-path="url(#clipPath2)" stroke="none"/>
      <path fill="none" d="M440.2234 477.9929 L433.4684 486.3118 L424.4626 499.3383 L416.9636 512.4453 L410.9713 525.6326 L406.4857 538.9003 L403.5069 552.2485 L402.0348 565.677 L402.0694 579.186 L403.6107 592.7753 L405.9562 603.2939 L405.9876 603.3888" clip-path="url(#clipPath2)"/>
      <path d="M408.1897 611.0797 L409.6934 598.167 L405.7123 602.4274 L400.0797 600.9196 Z" clip-path="url(#clipPath2)" stroke="none"/>
    </g>
  </g>
</svg>
